<svg xmlns="http://www.w3.org/2000/svg" width="301" height="59" viewBox="0 0 301 59" fill="#212121">
    <text x="40" y="40" font-size="36px" letter-spacing="0px" word-spacing="0px" style="font-family:sans-serif;font-size:36px;letter-spacing:0px;line-height:1;stroke-width:0.2;word-spacing:0px">
        <tspan x="40" y="41" font-size="36px" style="font-family:'Trajan Pro';font-size:36px;stroke-width:0.2"> Flawedspirit</tspan>
    </text>
    <path d="M7.24 51.19 0 43.95v-3.78h5.49v1.13l4.44 4.44c2.44 2.44 4.51 4.44 4.59 4.44 0.23 0 8.34-8.16 8.34-8.39 0-0.13-2.1-2.3-6.06-6.25l-6.06-6.06 8.18-8.18 8.18-8.18 0.96 0.9 0.96 0.9 0 10.79 0 10.79-2.75-2.75-2.75-2.75v-3.17c0-2.78-0.02-3.18-0.15-3.23-0.2-0.08-4.85 4.57-4.85 4.84 0 0.11 2.08 2.27 5.25 5.43l5.25 5.25v3.88l-7.22 7.19c-3.97 3.95-7.25 7.2-7.29 7.21-0.04 0.01-3.32-3.23-7.3-7.21zm-7.23-24.82 0.01-11.45 7.26-7.21 7.26-7.21 5.39 5.39 5.39 5.39-2.03 2.04-2.03 2.04-3.29-3.29c-1.81-1.81-3.35-3.29-3.43-3.29-0.19 0-8.34 8.15-8.34 8.34 0 0.08 1.49 1.64 3.31 3.46l3.31 3.31-1.91 1.91-1.91 1.91-1.59-1.58c-1.13-1.13-1.63-1.57-1.74-1.52-0.14 0.05-0.16 0.71-0.16 6.64v6.58H0Z" stroke-width="0.1"/>
</svg>