<?xml version="1.0" encoding="UTF-8" standalone="no"?>
<svg xmlns="http://www.w3.org/2000/svg" width="59" height="59" viewBox="0 0 58.9 58.9" fill="#f5f5f5">
    <path d="m22.2 51.2-7.2-7.2v-3.8h5.5v1.1l4.4 4.4c2.4 2.4 4.5 4.4 4.6 4.4 0.2 0 8.3-8.2 8.3-8.4 0-0.1-2.1-2.3-6.1-6.3l-6.1-6.1 8.2-8.2 8.2-8.2 1 0.9 1 0.9 0 10.8 0 10.8-2.7-2.7-2.7-2.7v-3.2c0-2.8 0-3.2-0.2-3.2-0.2-0.1-4.9 4.6-4.9 4.8 0 0.1 2.1 2.3 5.2 5.4l5.2 5.2v3.9l-7.2 7.2c-4 4-7.2 7.2-7.3 7.2 0 0-3.3-3.2-7.3-7.2zm-7.2-24.8 0-11.5 7.3-7.2 7.3-7.2 5.4 5.4 5.4 5.4-2 2-2 2-3.3-3.3c-1.8-1.8-3.4-3.3-3.4-3.3-0.2 0-8.3 8.1-8.3 8.3 0 0.1 1.5 1.6 3.3 3.5l3.3 3.3-1.9 1.9-1.9 1.9-1.6-1.6c-1.1-1.1-1.6-1.6-1.7-1.5-0.1 0.1-0.2 0.7-0.2 6.6v6.6h-5.5z" stroke-width="0.1"/>
</svg>
